<?xml version="1.0" encoding="utf-8"?>
<!-- Generator: Adobe Illustrator 24.2.0, SVG Export Plug-In . SVG Version: 6.00 Build 0)  -->
<svg version="1.1" id="Camada_1" xmlns="http://www.w3.org/2000/svg" xmlns:xlink="http://www.w3.org/1999/xlink" x="0px" y="0px"
	 viewBox="0 0 640 640" style="enable-background:new 0 0 640 640;" xml:space="preserve">
<style type="text/css">
	.st0{fill:#621F86;}
</style>
<path class="st0" d="M258,337L63.6,531.3c-9.4,9.4-24.6,9.4-33.9,0L7,508.6c-9.4-9.4-9.4-24.5,0-33.9L161,320L7,165.3
	c-9.3-9.4-9.3-24.5,0-33.9l22.7-22.7c9.4-9.4,24.6-9.4,33.9,0L258,303C267.4,312.4,267.4,327.6,258,337z M640,520v-32
	c0-13.3-10.7-24-24-24H312c-13.3,0-24,10.7-24,24v32c0,13.3,10.7,24,24,24h304C629.3,544,640,533.3,640,520z"/>
</svg>
