<svg width="1265" height="1265" viewBox="0 0 1265 1265" fill="none" xmlns="http://www.w3.org/2000/svg">
<path d="M155.945 543.993L364.427 324.944C376.01 312.775 389.66 304.082 405.379 298.867C421.098 293.651 437.231 292.782 453.777 296.259L518.307 310.602C473.632 366.233 438.472 416.649 412.825 461.85C387.178 507.05 362.359 561.812 338.367 626.136L155.945 543.993ZM410.343 662.645C429.371 600.059 455.216 540.951 487.879 485.319C520.574 429.688 560.086 377.533 606.416 328.856C679.219 252.362 762.364 195.201 855.85 157.372C949.336 119.577 1036.62 108.068 1117.69 122.845C1131.76 208.031 1121 299.736 1085.43 397.96C1049.85 496.185 995.665 583.544 922.862 660.037C877.36 707.845 827.721 749.36 773.946 784.582C720.171 819.769 663.5 847.358 603.934 867.351L410.343 662.645ZM752.85 506.181C771.878 526.174 795.257 536.17 822.989 536.17C850.687 536.17 874.05 526.174 893.079 506.181C912.107 486.188 921.621 461.624 921.621 432.487C921.621 403.384 912.107 378.837 893.079 358.845C874.05 338.852 850.687 328.856 822.989 328.856C795.257 328.856 771.878 338.852 752.85 358.845C733.821 378.837 724.307 403.384 724.307 432.487C724.307 461.624 733.821 486.188 752.85 506.181ZM718.102 1133.34L638.681 941.671C699.902 916.463 752.237 890.386 795.688 863.439C839.105 836.493 887.288 799.55 940.235 752.611L952.645 820.412C955.954 837.797 955.127 854.973 950.163 871.941C945.199 888.873 936.926 903.424 925.344 915.594L718.102 1133.34ZM235.367 829.539C264.323 799.115 299.483 783.678 340.849 783.226C382.214 782.808 417.375 797.812 446.331 828.235C475.287 858.658 489.765 895.601 489.765 939.063C489.765 982.525 475.287 1019.47 446.331 1049.89C425.648 1071.62 391.116 1090.31 342.735 1105.96C294.321 1121.6 227.507 1135.51 142.294 1147.68C153.877 1058.15 167.114 988.175 182.005 937.759C196.897 887.343 214.684 851.27 235.367 829.539V829.539Z" fill="url(#paint0_linear_223_12)"/>
<defs>
<linearGradient id="paint0_linear_223_12" x1="632.983" y1="116.615" x2="632.983" y2="1147.68" gradientUnits="userSpaceOnUse">
<stop stop-color="#7F2187"/>
<stop offset="0.385417" stop-color="#D90B72"/>
<stop offset="0.9998" stop-color="#F0AE23"/>
<stop offset="0.9999" stop-color="#3AB4E8"/>
<stop offset="1" stop-color="#070132"/>
</linearGradient>
</defs>
</svg>
