<svg width="2700" height="2725" viewBox="0 0 2700 2725" fill="none" xmlns="http://www.w3.org/2000/svg">
<path d="M1265.43 897.726L1551.64 597.005C1567.54 580.298 1586.28 568.365 1607.86 561.205C1629.44 554.045 1651.59 552.851 1674.31 557.625L1762.9 577.315C1701.56 653.688 1653.29 722.902 1618.08 784.956C1582.88 847.009 1548.8 922.19 1515.87 1010.5L1265.43 897.726ZM1614.68 1060.62C1640.8 974.697 1676.28 893.549 1721.12 817.176C1766.01 740.802 1820.25 669.202 1883.86 602.375C1983.8 497.361 2097.95 418.887 2226.29 366.953C2354.63 315.066 2474.46 299.267 2585.76 319.553C2605.07 436.501 2590.31 562.398 2541.47 697.245C2492.63 832.093 2418.24 952.023 2318.29 1057.04C2255.82 1122.67 2187.68 1179.66 2113.85 1228.02C2040.02 1276.32 1962.22 1314.2 1880.45 1341.65L1614.68 1060.62ZM2084.89 845.816C2111.01 873.263 2143.11 886.986 2181.18 886.986C2219.2 886.986 2251.28 873.263 2277.4 845.816C2303.52 818.369 2316.59 784.645 2316.59 744.645C2316.59 704.692 2303.52 670.992 2277.4 643.545C2251.28 616.098 2219.2 602.375 2181.18 602.375C2143.11 602.375 2111.01 616.098 2084.89 643.545C2058.76 670.992 2045.7 704.692 2045.7 744.645C2045.7 784.645 2058.76 818.369 2084.89 845.816ZM2037.19 1706.81L1928.15 1443.68C2012.2 1409.07 2084.05 1373.27 2143.7 1336.28C2203.3 1299.28 2269.45 1248.57 2342.14 1184.13L2359.18 1277.21C2363.72 1301.07 2362.58 1324.66 2355.77 1347.95C2348.96 1371.2 2337.6 1391.17 2321.7 1407.88L2037.19 1706.81ZM1374.46 1289.74C1414.21 1247.97 1462.48 1226.78 1519.27 1226.16C1576.06 1225.58 1624.33 1246.18 1664.08 1287.95C1703.84 1329.71 1723.71 1380.43 1723.71 1440.1C1723.71 1499.77 1703.84 1550.48 1664.08 1592.25C1635.69 1622.08 1588.28 1647.74 1521.86 1669.22C1455.4 1690.7 1363.67 1709.79 1246.69 1726.5C1262.59 1603.59 1280.76 1507.52 1301.2 1438.31C1321.65 1369.1 1346.07 1319.57 1374.46 1289.74V1289.74Z" fill="url(#paint0_linear_223_9)"/>
<path d="M2208.86 2192.37L1273.72 2193.33C1233.06 2193.37 1199.19 2179.85 1172.12 2152.77C1145.04 2125.69 1148.08 2097.08 1148.13 2056.43L1154.15 1965.98C1166.21 1905.69 1202.62 1903.84 1317.18 1897.81C1391.22 1893.91 1481.53 1897.85 1522.19 1897.81C1562.85 1897.76 1606.6 1897.81 1721.16 1903.84C1789.9 1907.45 1781.46 1903.84 1926.17 1903.84L2221.62 1897.81C2258.89 1897.77 2303.08 1905.28 2330.15 1933.98C2357.23 1962.82 2351.35 2012.65 2351.31 2049.92C2351.27 2087.19 2352.95 2116.19 2324.12 2145.02C2295.29 2173.85 2246.13 2192.33 2208.86 2192.37Z" fill="url(#paint1_linear_223_9)"/>
<path d="M761.618 589.25C786.859 562.923 818.387 549.759 856.203 549.759C894.11 549.759 926.831 564.12 954.367 592.84C981.902 621.56 995.67 655.69 995.67 695.228C995.67 734.671 981.902 768.753 954.367 797.473L420.867 1353.93L957.809 1913.98C983.049 1940.31 995.119 1973.24 994.018 2012.78C992.825 2052.22 979.608 2085.1 954.367 2111.43C929.126 2137.76 897.001 2150.92 857.993 2150.92C818.984 2150.92 786.859 2137.76 761.618 2111.43L128.303 1450.86C100.768 1422.14 87 1388.63 87 1350.34C87 1312.05 100.768 1278.54 128.303 1249.82L761.618 589.25Z" fill="url(#paint2_linear_223_9)"/>
<path d="M2208.86 2192.37L1273.72 2193.33C1233.06 2193.37 1199.19 2179.85 1172.12 2152.77C1145.04 2125.69 1148.08 2097.08 1148.13 2056.43L1154.15 1965.98C1166.21 1905.69 1202.62 1903.84 1317.18 1897.81C1391.22 1893.91 1481.53 1897.85 1522.19 1897.81C1562.85 1897.76 1606.6 1897.81 1721.16 1903.84C1789.9 1907.45 1781.46 1903.84 1926.17 1903.84L2221.62 1897.81C2258.89 1897.77 2303.08 1905.28 2330.15 1933.98C2357.23 1962.82 2351.35 2012.65 2351.31 2049.92C2351.27 2087.19 2352.95 2116.19 2324.12 2145.02C2295.29 2173.85 2246.13 2192.33 2208.86 2192.37Z" fill="url(#paint3_angular_223_9)"/>
<defs>
<linearGradient id="paint0_linear_223_9" x1="1920.33" y1="311" x2="1920.33" y2="1726.5" gradientUnits="userSpaceOnUse">
<stop stop-color="#7F2187"/>
<stop offset="0.385417" stop-color="#D90B72"/>
<stop offset="0.9998" stop-color="#F0AE23"/>
<stop offset="0.9999" stop-color="#3AB4E8"/>
<stop offset="1" stop-color="#070132"/>
</linearGradient>
<linearGradient id="paint1_linear_223_9" x1="1135.83" y1="2033.48" x2="2286.99" y2="2033.48" gradientUnits="userSpaceOnUse">
<stop stop-color="#F0AE23"/>
<stop offset="0.526042" stop-color="#7F2187"/>
<stop offset="0.963542" stop-color="#D90B72"/>
</linearGradient>
<linearGradient id="paint2_linear_223_9" x1="541.335" y1="2150.92" x2="541.335" y2="549.759" gradientUnits="userSpaceOnUse">
<stop/>
<stop offset="0.0001" stop-color="#7444B1"/>
<stop offset="0.348958" stop-color="#D90B72"/>
<stop offset="0.994592" stop-color="#F0AE23"/>
<stop offset="0.994692" stop-color="#3AB4E8"/>
<stop offset="0.994792" stop-color="#7F2187"/>
</linearGradient>
<radialGradient id="paint3_angular_223_9" cx="0" cy="0" r="1" gradientUnits="userSpaceOnUse" gradientTransform="translate(1745.52 2033.48) scale(592.634 595.476)">
<stop offset="0.00186586" stop-color="#E91A76"/>
<stop offset="0.5" stop-color="#7F2187"/>
</radialGradient>
</defs>
</svg>
